<?xml version="1.0" encoding="UTF-8"?>
<svg version="1.1" xmlns="http://www.w3.org/2000/svg" width="500" height="500">
<path d="M0 0 C165 0 330 0 500 0 C500 165 500 330 500 500 C335 500 170 500 0 500 C0 335 0 170 0 0 Z " fill="#FEFEFE" transform="translate(0,0)"/>
<path d="M0 0 C12.39687582 14.30408748 18.04402208 31.29460438 17 50 C16.61655706 53.12505999 15.95705627 56.00304664 15 59 C14.74347656 59.80953125 14.48695313 60.6190625 14.22265625 61.453125 C10.61001068 71.56233062 2.80342539 82.0982873 -7 87 C-6.76023437 88.68609375 -6.76023437 88.68609375 -6.515625 90.40625 C-5.93175429 95.11034308 -5.78041142 99.76342067 -5.75 104.5 C-5.7190625 105.70462891 -5.7190625 105.70462891 -5.6875 106.93359375 C-5.66165308 110.9204817 -5.86257355 114.07922463 -7.47265625 117.75 C-9.86156919 123.41995104 -9.57086716 129.43509236 -9.6875 135.5 C-9.72166016 136.70398438 -9.75582031 137.90796875 -9.79101562 139.1484375 C-9.87297195 142.09886516 -9.94229384 145.04901516 -10 148 C-11.98 148 -13.96 148 -16 148 C-16.10957031 147.41734375 -16.21914063 146.8346875 -16.33203125 146.234375 C-16.86389581 143.48424604 -17.42928009 140.7423271 -18 138 C-18.29197266 136.52273438 -18.29197266 136.52273438 -18.58984375 135.015625 C-20.23341336 127.50772122 -22.45600384 119.27880507 -28.9921875 114.5625 C-30.97247153 113.54620329 -32.90356531 112.74324467 -35 112 C-35.69996094 111.64550781 -36.39992188 111.29101562 -37.12109375 110.92578125 C-41.40000909 109.54979355 -45.53202888 109.66212732 -50 109.6875 C-50.93247559 109.68878906 -51.86495117 109.69007813 -52.82568359 109.69140625 C-59.40506987 109.78245467 -65.25738895 110.54540159 -71.6015625 112.34375 C-74 113 -74 113 -77 113 C-69.56993607 121.35882192 -60.75291654 123.00648177 -50 125 C-56.49133012 130.33216403 -63.91737274 129.54891858 -72 129 C-81.81238712 127.43440571 -90.49149155 124.10536415 -99.47485352 119.93920898 C-115.39908888 112.58089894 -136.07606018 107.88974765 -153.3125 113.5625 C-158.34022415 115.83334213 -162.29682466 118.93409906 -166 123 C-166.49371094 123.53882813 -166.98742187 124.07765625 -167.49609375 124.6328125 C-172.47591791 131.22332162 -172.88926257 140.05326068 -174 148 C-175.98 148 -177.96 148 -180 148 C-180.2475 146.72125 -180.495 145.4425 -180.75 144.125 C-181.49731216 140.70114429 -182.50543175 137.69334759 -183.9375 134.5 C-191.93303415 114.97532485 -191.38355552 91.12327124 -184.08984375 71.55859375 C-178.11132388 58.33338313 -167.21672255 50.15162762 -154 45 C-153.15743652 44.65485352 -152.31487305 44.30970703 -151.44677734 43.95410156 C-146.96386618 42.71318806 -142.80518381 42.70245135 -138.17578125 42.69140625 C-136.24023151 42.66623484 -134.30468471 42.640837 -132.36914062 42.61523438 C-129.34579307 42.58660373 -126.32249666 42.56256236 -123.29907227 42.54370117 C-107.17609028 42.42368552 -94.59467557 41.3867998 -81 32 C-80.53067684 37.74920875 -81.39353221 41.56683472 -85 46 C-86.63867966 47.36758347 -88.30166891 48.70724052 -90 50 C-71.91271652 45.34386762 -53.60426403 39.22580601 -43.375 22.4375 C-42.56537005 20.96808873 -41.76644688 19.49239047 -41 18 C-36.5770845 19.80507876 -35.15237457 22.36261397 -32.97265625 26.46875 C-31.43744049 30.4640103 -31.66364918 33.76197971 -32 38 C-16.6466949 28.1143266 -5.74282414 17.91655274 0 0 Z " fill="#242021" transform="translate(336,130)"/>
<path d="M0 0 C0.65747223 0.06933243 1.31494446 0.13866486 1.99234009 0.21009827 C8.93134515 0.89733686 15.80344771 1.17462524 22.7734375 1.24609375 C25.00260819 1.2790256 27.23177476 1.31223735 29.4609375 1.34570312 C32.91859207 1.39300447 36.37622914 1.43751397 39.83398438 1.47680664 C62.42040287 1.74515695 62.42040287 1.74515695 72.20751953 3.55688477 C77.36743008 4.37566756 82.53762394 4.28865792 87.75 4.25 C88.80832031 4.25773437 89.86664063 4.26546875 90.95703125 4.2734375 C92.51744141 4.26957031 92.51744141 4.26957031 94.109375 4.265625 C95.02686523 4.26336914 95.94435547 4.26111328 96.88964844 4.25878906 C99.46914566 4.04416841 101.60573269 3.63318001 104.09472656 3.00708008 C109.83660757 1.66786607 115.50153288 1.66575737 121.375 1.62109375 C122.53950684 1.60409927 123.70401367 1.5871048 124.90380859 1.56959534 C128.60248481 1.51678411 132.30115278 1.47633114 136 1.4375 C139.69879011 1.39336342 143.39750034 1.34648198 147.09619141 1.29469299 C149.39007507 1.26310131 151.68402822 1.23610319 153.97802734 1.21446228 C160.05803274 1.13645302 165.96917217 0.78427629 172 0 C172.45490079 6.36861103 171.60771445 10.66205515 168 16 C164.8125 19 164.8125 19 162 19 C162.02356567 20.08099976 162.02356567 20.08099976 162.04760742 21.18383789 C162.11030487 24.47664415 162.14910095 27.76932438 162.1875 31.0625 C162.21263672 32.19623047 162.23777344 33.32996094 162.26367188 34.49804688 C162.3325334 42.37121437 161.88711373 47.56667556 156.6875 53.75 C151.72032267 57.90856707 147.62896009 59.37972161 141.16796875 59.3984375 C139.87439453 59.40230469 138.58082031 59.40617187 137.24804688 59.41015625 C136.58023193 59.40387207 135.91241699 59.39758789 135.22436523 59.39111328 C133.20291768 59.37512197 131.18349345 59.39095421 129.16210938 59.41015625 C117.14764453 59.37434562 109.93457596 57.78838507 101.16796875 49.40234375 C98.25010511 46.16903539 96.45385417 43.08262536 95 39 C94.5875 37.906875 94.175 36.81375 93.75 35.6875 C92.7478067 30.7600496 92.83694805 26.00931819 93 21 C91.04174127 20.97305149 89.08337774 20.95362782 87.125 20.9375 C86.03445312 20.92589844 84.94390625 20.91429687 83.8203125 20.90234375 C81.04822454 20.80255697 81.04822454 20.80255697 79 22 C78.65243932 24.30221817 78.39829488 26.61875628 78.1875 28.9375 C77.13499076 38.21101923 74.26813635 46.04670076 67.13085938 52.35375977 C58.76264593 58.8187991 50.03539276 59.77884453 39.82788086 59.59692383 C37.67236081 59.56225652 35.52087883 59.57641051 33.36523438 59.59570312 C31.97654526 59.58881144 30.58786653 59.57914519 29.19921875 59.56640625 C27.96002686 59.55552979 26.72083496 59.54465332 25.4440918 59.53344727 C18.67898403 58.48561566 14.90418722 54.20558296 11 49 C8.87035425 45.58851209 8.76557303 42.91155135 8.8046875 38.921875 C8.81113281 37.76171875 8.81757813 36.6015625 8.82421875 35.40625 C8.84097656 34.1996875 8.85773438 32.993125 8.875 31.75 C8.88402344 30.52796875 8.89304688 29.3059375 8.90234375 28.046875 C8.92590487 25.03105218 8.95880294 22.01562508 9 19 C8.38511719 18.70996094 7.77023438 18.41992188 7.13671875 18.12109375 C3.40860515 16.16502683 1.32926754 13.98780263 0 10 C-0.13128641 6.66532507 -0.04332976 3.33639152 0 0 Z " fill="#272526" transform="translate(155,283)"/>
<path d="M0 0 C1.16450684 -0.00218285 1.16450684 -0.00218285 2.35253906 -0.00440979 C3.98636648 -0.00275716 5.6202105 0.00873269 7.25390625 0.02954102 C9.74286591 0.05851071 12.22969384 0.05013465 14.71875 0.03710938 C16.31251026 0.04334752 17.90626386 0.05173906 19.5 0.0625 C20.23766602 0.05956436 20.97533203 0.05662872 21.73535156 0.05360413 C27.69790183 0.16150401 31.7262854 1.61427566 36.08984375 5.671875 C38.24685667 9.34133462 38.39583286 12.53892847 38.3125 16.68359375 C38.29823975 17.8142627 38.29823975 17.8142627 38.28369141 18.96777344 C37.98498784 27.01032391 35.57336893 32.54438987 30 38.37109375 C21.5348615 43.905992 14.65906257 45.13338412 4.5625 44.99609375 C3.41330078 45.0115625 2.26410156 45.02703125 1.08007812 45.04296875 C-5.26798854 45.01356253 -9.55955934 44.97926453 -14.25 40.49609375 C-16.95332421 36.72208574 -17.63328186 34.1149548 -17.6484375 29.49609375 C-17.65230469 28.36171875 -17.65617188 27.22734375 -17.66015625 26.05859375 C-17.64855469 24.88296875 -17.63695312 23.70734375 -17.625 22.49609375 C-17.63660156 21.32046875 -17.64820313 20.14484375 -17.66015625 18.93359375 C-17.65628906 17.79921875 -17.65242187 16.66484375 -17.6484375 15.49609375 C-17.64505371 14.46484375 -17.64166992 13.43359375 -17.63818359 12.37109375 C-16.99627852 7.61695903 -15.19028322 5.29899458 -11.578125 2.21459961 C-7.6170218 0.16925003 -4.35317899 -0.06629493 0 0 Z " fill="#FAF8F9" transform="translate(188.25,291.50390625)"/>
<path d="M0 0 C1.16662926 -0.00430527 1.16662926 -0.00430527 2.35682678 -0.00869751 C3.99659964 -0.01073275 5.63639707 -0.00524073 7.27612305 0.00732422 C9.77383267 0.02336478 12.26991899 0.00746941 14.76757812 -0.01171875 C16.36588896 -0.0097358 17.96419879 -0.00589104 19.5625 0 C20.67370461 -0.00910904 20.67370461 -0.00910904 21.80735779 -0.0184021 C27.92213865 0.06371658 31.80996559 1.40625094 36.18725586 5.68579102 C39.30129891 10.77329761 38.46038003 16.53065996 38.41015625 22.3359375 C38.44592773 24.22989258 38.44592773 24.22989258 38.48242188 26.16210938 C38.46608328 36.48265759 38.46608328 36.48265759 35.625 40.15234375 C26.94166141 47.17473432 13.37763382 45.41439513 2.84765625 44.3984375 C-4.50524082 42.86191569 -9.86267229 38.63795963 -14.06640625 32.5234375 C-16.72047214 27.32986972 -17.46828229 22.71008555 -17.52734375 16.8984375 C-17.55570313 15.63 -17.5840625 14.3615625 -17.61328125 13.0546875 C-17.06951482 8.74142157 -15.93813693 6.70716114 -13.15234375 3.3984375 C-8.94551664 0.1548626 -5.13308428 -0.04196351 0 0 Z " fill="#FAF8F9" transform="translate(272.15234375,291.6015625)"/>
<path d="M0 0 C0.37125 1.134375 0.7425 2.26875 1.125 3.4375 C1.87565045 5.37926002 1.87565045 5.37926002 3 7 C5.85712251 7.87462934 8.04877804 8 11 8 C11.34605141 13.76752349 11.32125966 18.0181105 8 23 C4.06679381 26.56446811 0.35867252 27.35913489 -4.9375 27.28125 C-9.32511227 26.68293924 -12.04646 24.08067867 -14.875 20.875 C-16.57460974 16.53155289 -16.90610381 12.58759645 -16 8 C-11.75436756 0.79411007 -7.91965117 -0.12773631 0 0 Z " fill="#242223" transform="translate(286,300)"/>
<path d="M0 0 C0.350625 1.134375 0.70125 2.26875 1.0625 3.4375 C1.79628367 5.39843869 1.79628367 5.39843869 3 7 C6.55652459 7.90137027 6.55652459 7.90137027 10 8 C11.55944339 11.11888678 11.28316275 13.5454145 11 17 C9.55720244 21.03158861 7.75618592 23.46723265 4.25 25.9375 C0.31840666 27.22282859 -2.91079438 27.73458784 -7 27 C-11.3604287 24.77864953 -14.20212362 22.59457298 -16 18 C-16.73650973 13.62557858 -17.02973445 9.74771444 -14.72265625 5.83203125 C-9.98108883 0.20939018 -7.17721315 -0.1157615 0 0 Z " fill="#242223" transform="translate(199,300)"/>
<path d="M0 0 C2.375 0.875 2.375 0.875 4.375 2.875 C5 5.625 5 5.625 4.375 8.875 C2.0282055 11.40231716 -0.68527087 13.10119734 -3.625 14.875 C-4.24117188 15.29265625 -4.85734375 15.7103125 -5.4921875 16.140625 C-10.80336043 19.16948667 -16.15564716 19.25832223 -22.125 19.3125 C-22.92010986 19.32265137 -23.71521973 19.33280273 -24.53442383 19.34326172 C-30.34725985 19.25829798 -35.2254746 17.99174943 -40.625 15.875 C-40.625 15.545 -40.625 15.215 -40.625 14.875 C-39.58601562 14.76542969 -38.54703125 14.65585937 -37.4765625 14.54296875 C-24.54081582 13.10773461 -13.56234658 11.60518619 -4.4375 1.4375 C-2.625 -0.125 -2.625 -0.125 0 0 Z " fill="#282627" transform="translate(262.625,351.125)"/>
<path d="M0 0 C3.74280869 1.97773414 6.83388129 4.44762119 9.9375 7.3125 C9.6075 7.9725 9.2775 8.6325 8.9375 9.3125 C8.24785156 9.04695313 7.55820313 8.78140625 6.84765625 8.5078125 C-5.56133905 3.84380055 -15.89550702 3.05683023 -29.0625 3.3125 C-21.15141933 -3.13356573 -9.37478256 -3.94475518 0 0 Z " fill="#2F2F2F" transform="translate(214.0625,273.6875)"/>
<path d="M0 0 C1.05864258 -0.00193359 1.05864258 -0.00193359 2.13867188 -0.00390625 C7.91705386 0.11282874 12.36670239 1.33650371 17.25 4.375 C17.25 4.705 17.25 5.035 17.25 5.375 C16.11304688 5.34019531 14.97609375 5.30539062 13.8046875 5.26953125 C-2.02811168 4.84416242 -2.02811168 4.84416242 -16.9453125 9.5390625 C-18.75 10.375 -18.75 10.375 -21.75 9.375 C-20.36019248 8.24256424 -18.96285323 7.11936881 -17.5625 6 C-16.78519531 5.37351562 -16.00789063 4.74703125 -15.20703125 4.1015625 C-10.28346274 0.6417576 -5.93435958 -0.0111653 0 0 Z " fill="#2B292A" transform="translate(277.75,271.625)"/>
<path d="M0 0 C2 3 2 3 1.75 5.5625 C1 8 1 8 -1 10 C-3.1640625 9.9765625 -3.1640625 9.9765625 -5.625 9.625 C-6.85089844 9.45871094 -6.85089844 9.45871094 -8.1015625 9.2890625 C-9.04128906 9.14597656 -9.04128906 9.14597656 -10 9 C-8.82648048 5.47944145 -8.09677617 5.17776613 -5 3.375 C-2.3413953 1.8943999 -2.3413953 1.8943999 0 0 Z " fill="#302E2F" transform="translate(220,327)"/>
<path d="M0 0 C0.33 0.99 0.66 1.98 1 3 C-0.85625 3.680625 -0.85625 3.680625 -2.75 4.375 C-5.0529828 5.22795659 -7.14840598 6.08021945 -9.3125 7.25 C-11 8 -11 8 -14 7 C-12.61664079 5.81856904 -11.21771574 4.65534866 -9.8125 3.5 C-9.03519531 2.8503125 -8.25789063 2.200625 -7.45703125 1.53125 C-4.68668659 -0.1952605 -3.20092666 -0.31838702 0 0 Z " fill="#302F30" transform="translate(270,274)"/>
</svg>
